<svg width="24" height="24" viewBox="0 0 24 24" fill="none" xmlns="http://www.w3.org/2000/svg">
<path d="M19.6198 13.6241L18.8802 7.69006L5.12021 7.69006L3.40021 21.4501L17.1602 21.4501" stroke="white" stroke-width="2.064" stroke-miterlimit="10"/>
<path d="M17.14 15.4301V17.1501H18.86" stroke="white" stroke-width="2.064" stroke-miterlimit="10" stroke-linecap="square"/>
<path d="M17.14 21.4401C19.5148 21.4401 21.44 19.5149 21.44 17.1401C21.44 14.7653 19.5148 12.8401 17.14 12.8401C14.7652 12.8401 12.84 14.7653 12.84 17.1401C12.84 19.5149 14.7652 21.4401 17.14 21.4401Z" stroke="white" stroke-width="2.064" stroke-miterlimit="10" stroke-linecap="square"/>
<path d="M8.56001 10.3001L8.56001 6.00006C8.56001 4.10806 10.108 2.56006 12 2.56006C13.892 2.56006 15.44 4.10806 15.44 6.00006L15.44 10.3001" stroke="white" stroke-width="2.064" stroke-miterlimit="10" stroke-linecap="round"/>
</svg>
