<svg width="24" height="24" viewBox="0 0 24 24" fill="none" xmlns="http://www.w3.org/2000/svg">
<path d="M9.84732 11.9269C9.7424 12.8995 9.28746 15.0771 7.3 15.7393C4.72 16.5993 3 17.5668 3 20.8993L20.2 20.8993C20.2 17.5668 18.48 16.5993 15.9 15.7393C13.9117 15.0762 13.4576 12.8995 13.3527 11.9269" stroke="white" stroke-width="2.064" stroke-miterlimit="10" stroke-linecap="round"/>
<path d="M11.6 12.32C9.22554 12.32 7.3 10.3945 7.3 8.02L7.3 6.3C7.3 3.92554 9.22554 2 11.6 2C13.9745 2 15.9 3.92554 15.9 6.3L15.9 8.02C15.9 10.3945 13.9745 12.32 11.6 12.32Z" stroke="white" stroke-width="2.064" stroke-miterlimit="10" stroke-linecap="round"/>
</svg>
