<svg width="19" height="20" viewBox="0 0 19 20" fill="none" xmlns="http://www.w3.org/2000/svg">
<path d="M18.3303 13.0356L4.1303 13.0356L5.1953 11.5312L15.4903 11.5312C15.7963 11.5312 16.0668 11.3244 16.1634 11.0167L18.2934 4.24675C18.3665 4.01733 18.3296 3.76533 18.1961 3.56901C18.0626 3.37268 17.8482 3.25684 17.6203 3.25684L5.13424 3.25684L3.21227 1.22059C2.93466 0.926471 2.48594 0.926471 2.20833 1.22059C1.93072 1.5147 1.93072 1.9901 2.20833 2.28422L4.1303 4.32047L4.1303 10.5278L2.1423 13.3365C1.98042 13.5645 1.95486 13.8691 2.07485 14.1241C2.19555 14.3791 2.44121 14.5401 2.7103 14.5401L18.3303 14.5401C18.7229 14.5401 19.0403 14.2031 19.0403 13.7879C19.0403 13.3726 18.7229 13.0356 18.3303 13.0356Z" fill="#858994"/>
<path d="M4.81029 19.1063C5.59453 19.1063 6.23029 18.4328 6.23029 17.6019C6.23029 16.771 5.59453 16.0975 4.81029 16.0975C4.02604 16.0975 3.39029 16.771 3.39029 17.6019C3.39029 18.4328 4.02604 19.1063 4.81029 19.1063Z" fill="#858994"/>
<path d="M16.2303 19.1063C17.0145 19.1063 17.6503 18.4328 17.6503 17.6019C17.6503 16.771 17.0145 16.0975 16.2303 16.0975C15.4461 16.0975 14.8103 16.771 14.8103 17.6019C14.8103 18.4328 15.4461 19.1063 16.2303 19.1063Z" fill="#858994"/>
<path d="M2 19L18 2L17.5 1.5L1.5 18.5L2 19Z" stroke="#743093"/>
</svg>
