<svg width="21" height="22" viewBox="0 0 21 22" fill="none" xmlns="http://www.w3.org/2000/svg">
<path d="M8.84732 11.9269C8.7424 12.8995 8.28746 15.0771 6.3 15.7393C3.72 16.5993 2 17.5668 2 20.8993L19.2 20.8993C19.2 17.5668 17.48 16.5993 14.9 15.7393C12.9117 15.0762 12.4576 12.8995 12.3527 11.9269" stroke="white" stroke-width="2.064" stroke-miterlimit="10" stroke-linecap="round"/>
<path d="M10.6 12.32C8.22554 12.32 6.3 10.3945 6.3 8.02L6.3 6.3C6.3 3.92554 8.22554 2 10.6 2C12.9745 2 14.9 3.92554 14.9 6.3L14.9 8.02C14.9 10.3945 12.9745 12.32 10.6 12.32Z" stroke="white" stroke-width="2.064" stroke-miterlimit="10" stroke-linecap="round"/>
</svg>
