<svg width="20" height="20" viewBox="0 0 20 20" fill="none" xmlns="http://www.w3.org/2000/svg">
<path d="M10 3.85C12 3.85 12.24 3.8575 13.0305 3.8935C13.5062 3.89911 13.9774 3.98656 14.4235 4.152C14.7492 4.27222 15.0437 4.46392 15.2855 4.713C15.5346 4.95479 15.7263 5.24934 15.8465 5.575C16.0119 6.02107 16.0994 6.49228 16.105 6.968C16.141 7.76 16.15 8 16.15 10C16.15 12 16.1425 12.24 16.1065 13.0305C16.1009 13.5062 16.0134 13.9774 15.848 14.4235C15.5955 15.0773 15.0788 15.594 14.425 15.8465C13.9789 16.0119 13.5077 16.0994 13.032 16.105C12.2415 16.141 12.004 16.1485 10.0015 16.1485C7.999 16.1485 7.7615 16.141 6.971 16.105C6.49528 16.0994 6.02407 16.0119 5.578 15.8465C5.25234 15.7263 4.95779 15.5346 4.716 15.2855C4.46692 15.0437 4.27522 14.7492 4.155 14.4235C3.98956 13.9774 3.90211 13.5062 3.8965 13.0305C3.859 12.24 3.85 12.0025 3.85 10C3.85 7.9975 3.8575 7.76 3.8935 6.9695C3.89911 6.49378 3.98656 6.02257 4.152 5.5765C4.27265 5.2507 4.46487 4.95613 4.7145 4.7145C4.95629 4.46542 5.25084 4.27372 5.5765 4.1535C6.02256 3.98806 6.49378 3.90061 6.9695 3.895C7.76 3.859 8 3.85 10 3.85ZM10 2.5C7.963 2.5 7.7075 2.5085 6.908 2.545C6.28561 2.55819 5.66993 2.67652 5.087 2.895C4.58688 3.08322 4.13373 3.37805 3.759 3.759C3.37751 4.13358 3.08216 4.58675 2.8935 5.087C2.67502 5.66993 2.55669 6.28561 2.5435 6.908C2.5085 7.7075 2.5 7.963 2.5 10C2.5 12.037 2.5085 12.2925 2.545 13.092C2.55819 13.7144 2.67652 14.3301 2.895 14.913C3.08366 15.4133 3.37901 15.8664 3.7605 16.241C4.13508 16.6225 4.58825 16.9178 5.0885 17.1065C5.67143 17.325 6.28711 17.4433 6.9095 17.4565C7.7095 17.493 7.9645 17.5015 10.0015 17.5015C12.0385 17.5015 12.294 17.493 13.0935 17.4565C13.7159 17.4433 14.3316 17.325 14.9145 17.1065C15.9215 16.7162 16.7177 15.92 17.108 14.913C17.3265 14.3301 17.4448 13.7144 17.458 13.092C17.4945 12.292 17.503 12.037 17.503 10C17.503 7.963 17.4945 7.7075 17.458 6.908C17.4448 6.28561 17.3265 5.66993 17.108 5.087C16.9193 4.58675 16.624 4.13358 16.2425 3.759C15.8679 3.37751 15.4148 3.08216 14.9145 2.8935C14.3316 2.67502 13.7159 2.55669 13.0935 2.5435C12.2925 2.5085 12.037 2.5 10 2.5Z" fill="#F3F4F6"/>
<path d="M10 6.14999C7.87373 6.14999 6.15002 7.8737 6.15002 9.99999C6.15002 12.1263 7.87373 13.85 10 13.85C12.1263 13.85 13.85 12.1263 13.85 9.99999C13.85 7.8737 12.1263 6.14999 10 6.14999ZM10 12.5C8.61931 12.5 7.50002 11.3807 7.50002 9.99999C7.50002 8.61928 8.61931 7.49999 10 7.49999C11.3807 7.49999 12.5 8.61928 12.5 9.99999C12.5 11.3807 11.3807 12.5 10 12.5Z" fill="#F3F4F6"/>
<path d="M14.0063 6.89375C14.5033 6.89375 14.9063 6.49081 14.9063 5.99375C14.9063 5.49669 14.5033 5.09375 14.0063 5.09375C13.5092 5.09375 13.1063 5.49669 13.1063 5.99375C13.1063 6.49081 13.5092 6.89375 14.0063 6.89375Z" fill="#F3F4F6"/>
</svg>
