<svg width="20" height="20" viewBox="0 0 20 20" fill="none" xmlns="http://www.w3.org/2000/svg">
<path d="M13.4316 7.42886L7.41273 11.4919C6.71208 12.0136 5.94471 11.8979 5.94471 11.8979C5.23517 11.8117 3.76714 11.3081 3.76714 11.3081L2.86854 10.9996C2.25241 10.7205 2.59495 10.2079 2.59495 10.2079C2.76622 10.0241 3.09764 9.84488 3.09764 9.84488C3.57141 9.59761 4.18531 9.34807 4.18531 9.34807L14.5104 4.85178L15.4201 4.49561C16.1497 4.16667 16.8392 4.16667 16.8392 4.16667C17.2752 4.2438 17.3797 4.45705 17.3797 4.45705C17.5599 4.74742 17.4842 5.48017 17.4842 5.48017L17.333 6.68704L16.5767 11.755L15.8961 15.6842C15.687 16.3602 15.4713 16.5916 15.4713 16.5916C15.0731 17.0158 14.6194 16.8434 14.6194 16.8434C14.0233 16.7572 13.7208 16.4759 13.7208 16.4759L9.40568 13.4927C9.06537 13.2228 8.99864 12.8938 8.99864 12.8938C8.95638 12.4673 9.3523 12.1021 9.3523 12.1021L13.6096 7.95971C13.7274 7.8304 13.8031 7.69202 13.8031 7.69202C13.8476 7.61715 13.7719 7.46062 13.7719 7.46062C13.7141 7.37215 13.574 7.38576 13.574 7.38576C13.4828 7.38576 13.4383 7.42886 13.4383 7.42886H13.4316Z" stroke="white" stroke-width="1.2" stroke-miterlimit="10"/>
</svg>
