<svg width="32" height="32" viewBox="0 0 32 32" fill="none" xmlns="http://www.w3.org/2000/svg">
<path d="M21.4906 11.8861L11.8604 18.3869C10.7393 19.2218 9.51153 19.0366 9.51153 19.0366C8.37626 18.8987 6.02743 18.0929 6.02743 18.0929L4.58966 17.5993C3.60386 17.1528 4.15192 16.3325 4.15192 16.3325C4.42595 16.0385 4.95622 15.7518 4.95622 15.7518C5.71425 15.3561 6.69649 14.9569 6.69649 14.9569L23.2166 7.7628L24.6722 7.19293C25.8395 6.66663 26.9427 6.66663 26.9427 6.66663C27.6403 6.79004 27.8075 7.13123 27.8075 7.13123C28.0958 7.59583 27.9748 8.76822 27.9748 8.76822L27.7328 10.6992L26.5228 18.808L25.4338 25.0946C25.0993 26.1763 24.754 26.5465 24.754 26.5465C24.117 27.2252 23.391 26.9494 23.391 26.9494C22.4372 26.8115 21.9532 26.3614 21.9532 26.3614L15.0491 21.5883C14.5046 21.1564 14.3978 20.6301 14.3978 20.6301C14.3302 19.9477 14.9637 19.3633 14.9637 19.3633L21.7753 12.7355C21.9639 12.5286 22.0849 12.3072 22.0849 12.3072C22.1561 12.1874 22.0351 11.9369 22.0351 11.9369C21.9426 11.7954 21.7184 11.8172 21.7184 11.8172C21.5724 11.8172 21.5013 11.8861 21.5013 11.8861H21.4906Z" stroke="white" stroke-width="2" stroke-miterlimit="10"/>
</svg>
