<svg width="32" height="32" viewBox="0 0 32 32" fill="none" xmlns="http://www.w3.org/2000/svg">
<path d="M28.8 8.07998C27.84 8.47998 26.88 8.79998 25.76 8.87998C26.88 8.23998 27.68 7.19998 28.08 5.99998C27.04 6.63998 25.92 7.03998 24.72 7.27998C23.76 6.23998 22.4 5.59998 20.96 5.59998C18.08 5.59998 15.68 7.91998 15.68 10.88C15.68 11.28 15.76 11.68 15.84 12.08C11.44 11.84 7.6 9.75997 4.96 6.55998C4.48 7.35998 4.24 8.23998 4.24 9.19998C4.24 11.04 5.19999 12.64 6.55999 13.6C5.67999 13.6 4.88 13.36 4.16 12.96V13.04C4.16 15.6 5.99999 17.68 8.4 18.16C7.92 18.24 7.52 18.32 7.04 18.32C6.72 18.32 6.4 18.32 6.07999 18.24C6.72 20.32 8.72 21.84 10.96 21.92C9.2 23.36 6.88 24.16 4.4 24.16C4 24.16 3.52 24.16 3.12 24.08C5.52 25.52 8.32 26.4 11.28 26.4C20.96 26.4 26.24 18.4 26.24 11.44C26.24 11.2 26.24 10.96 26.24 10.8C27.2 9.99998 28.08 9.11998 28.8 8.07998Z" fill="#F3F4F6"/>
</svg>
