<svg width="63" height="63" viewBox="0 0 63 63" fill="none" xmlns="http://www.w3.org/2000/svg">
<g clip-path="url(#clip0_48_208)">
<path d="M61.0454 31.5C61.0454 47.8176 47.8175 61.0455 31.5 61.0455C15.1825 61.0455 1.95453 47.8176 1.95453 31.5C1.95453 15.1825 15.1825 1.95459 31.5 1.95459C47.8175 1.95459 61.0454 15.1825 61.0454 31.5Z" stroke="#743093" stroke-width="2" stroke-linecap="round" stroke-linejoin="round"/>
<path d="M31.5 4.77271V58.2272" stroke="#743093" stroke-width="2" stroke-linecap="round" stroke-linejoin="round"/>
<path d="M4.77271 58.2273H58.2272" stroke="#743093" stroke-width="2" stroke-linecap="round" stroke-linejoin="round"/>
<path d="M31.5 4.77271L58.2273 58.2272" stroke="#743093" stroke-width="2" stroke-linecap="round" stroke-linejoin="round"/>
<path d="M31.5 4.77271L4.77271 58.2272" stroke="#743093" stroke-width="2" stroke-linecap="round" stroke-linejoin="round"/>
<path d="M34.3182 31.4999C34.3182 33.0564 33.0564 34.3181 31.5 34.3181C29.9436 34.3181 28.6818 33.0564 28.6818 31.4999C28.6818 29.9435 29.9436 28.6818 31.5 28.6818C33.0564 28.6818 34.3182 29.9435 34.3182 31.4999Z" stroke="#743093" stroke-width="2" stroke-linecap="round" stroke-linejoin="round"/>
<path d="M37.369 22.7873H25.6936C27.668 21.8255 29.6126 21.3595 31.5319 21.3595C33.4513 21.3595 35.3955 21.8255 37.369 22.7873Z" stroke="#743093" stroke-width="2" stroke-linecap="round" stroke-linejoin="round"/>
<path d="M18.7522 36.3182H44.2478C39.9011 40.1349 35.6545 41.9556 31.5 41.9556C27.3455 41.9556 23.099 40.1349 18.7522 36.3182Z" stroke="#743093" stroke-width="2" stroke-linecap="round" stroke-linejoin="round"/>
</g>
<defs>
<clipPath id="clip0_48_208">
<rect width="63" height="63" fill="white"/>
</clipPath>
</defs>
</svg>
