<svg width="32" height="32" viewBox="0 0 32 32" fill="none" xmlns="http://www.w3.org/2000/svg">
<path d="M16 6.16C19.2 6.16 19.584 6.172 20.8488 6.2296C21.61 6.23858 22.3639 6.37849 23.0776 6.6432C23.5986 6.83554 24.0699 7.14227 24.4568 7.5408C24.8553 7.92766 25.1621 8.39895 25.3544 8.92C25.6191 9.6337 25.759 10.3876 25.768 11.1488C25.8256 12.416 25.84 12.8 25.84 16C25.84 19.2 25.828 19.584 25.7704 20.8488C25.7614 21.61 25.6215 22.3639 25.3568 23.0776C24.9529 24.1236 24.126 24.9505 23.08 25.3544C22.3663 25.6191 21.6124 25.759 20.8512 25.768C19.5864 25.8256 19.2064 25.8376 16.0024 25.8376C12.7984 25.8376 12.4184 25.8256 11.1536 25.768C10.3924 25.759 9.6385 25.6191 8.9248 25.3544C8.40375 25.1621 7.93246 24.8553 7.5456 24.4568C7.14707 24.0699 6.84034 23.5986 6.648 23.0776C6.38329 22.3639 6.24338 21.61 6.2344 20.8488C6.1744 19.584 6.16 19.204 6.16 16C6.16 12.796 6.172 12.416 6.2296 11.1512C6.23858 10.39 6.37849 9.6361 6.6432 8.9224C6.83624 8.40113 7.1438 7.92981 7.5432 7.5432C7.93006 7.14467 8.40135 6.83794 8.9224 6.6456C9.6361 6.38089 10.39 6.24098 11.1512 6.232C12.416 6.1744 12.8 6.16 16 6.16ZM16 4C12.7408 4 12.332 4.0136 11.0528 4.072C10.057 4.0931 9.07189 4.28243 8.1392 4.632C7.33901 4.93316 6.61396 5.40487 6.0144 6.0144C5.40401 6.61373 4.93146 7.33879 4.6296 8.1392C4.28003 9.07189 4.0907 10.057 4.0696 11.0528C4.0136 12.332 4 12.7408 4 16C4 19.2592 4.0136 19.668 4.072 20.9472C4.0931 21.943 4.28243 22.9281 4.632 23.8608C4.93386 24.6612 5.40641 25.3863 6.0168 25.9856C6.61613 26.596 7.34119 27.0685 8.1416 27.3704C9.07429 27.72 10.0594 27.9093 11.0552 27.9304C12.3352 27.9888 12.7432 28.0024 16.0024 28.0024C19.2616 28.0024 19.6704 27.9888 20.9496 27.9304C21.9454 27.9093 22.9305 27.72 23.8632 27.3704C25.4744 26.7459 26.7483 25.472 27.3728 23.8608C27.7224 22.9281 27.9117 21.943 27.9328 20.9472C27.9912 19.6672 28.0048 19.2592 28.0048 16C28.0048 12.7408 27.9912 12.332 27.9328 11.0528C27.9117 10.057 27.7224 9.07189 27.3728 8.1392C27.0709 7.33879 26.5984 6.61373 25.988 6.0144C25.3887 5.40401 24.6636 4.93146 23.8632 4.6296C22.9305 4.28003 21.9454 4.0907 20.9496 4.0696C19.668 4.0136 19.2592 4 16 4Z" fill="#F3F4F6"/>
<path d="M16 9.83997C12.598 9.83997 9.84003 12.5979 9.84003 16C9.84003 19.402 12.598 22.16 16 22.16C19.4021 22.16 22.16 19.402 22.16 16C22.16 12.5979 19.4021 9.83997 16 9.83997ZM16 20C13.7909 20 12 18.2091 12 16C12 13.7908 13.7909 12 16 12C18.2092 12 20 13.7908 20 16C20 18.2091 18.2092 20 16 20Z" fill="#F3F4F6"/>
<path d="M22.41 11.03C23.2053 11.03 23.85 10.3853 23.85 9.59002C23.85 8.79473 23.2053 8.15002 22.41 8.15002C21.6147 8.15002 20.97 8.79473 20.97 9.59002C20.97 10.3853 21.6147 11.03 22.41 11.03Z" fill="#F3F4F6"/>
</svg>
