<svg width="24" height="24" viewBox="0 0 24 24" fill="none" xmlns="http://www.w3.org/2000/svg">
<rect x="0.5" y="0.5" width="23" height="23" rx="5.5" stroke="#9095A0"/>
<path d="M14.863 9.26323L8.96447 13.5144C8.27784 14.0603 7.52581 13.9392 7.52581 13.9392C6.83046 13.849 5.39179 13.3221 5.39179 13.3221L4.51116 12.9993C3.90736 12.7073 4.24305 12.1709 4.24305 12.1709C4.41089 11.9786 4.73568 11.7911 4.73568 11.7911C5.19997 11.5324 5.8016 11.2713 5.8016 11.2713L15.9202 6.56681L16.8117 6.19415C17.5267 5.84998 18.2024 5.84998 18.2024 5.84998C18.6297 5.93068 18.7321 6.1538 18.7321 6.1538C18.9087 6.45762 18.8346 7.2243 18.8346 7.2243L18.6863 8.48706L17.9452 13.7897L17.2782 17.9008C17.0733 18.6081 16.8618 18.8502 16.8618 18.8502C16.4717 19.2941 16.027 19.1137 16.027 19.1137C15.4428 19.0235 15.1464 18.7292 15.1464 18.7292L10.9176 15.6079C10.5841 15.3254 10.5187 14.9813 10.5187 14.9813C10.4772 14.535 10.8652 14.1529 10.8652 14.1529L15.0374 9.81865C15.1529 9.68336 15.227 9.53857 15.227 9.53857C15.2706 9.46024 15.1965 9.29646 15.1965 9.29646C15.1398 9.20389 15.0025 9.21813 15.0025 9.21813C14.9131 9.21813 14.8695 9.26323 14.8695 9.26323H14.863Z" fill="#9095A0" stroke="#9095A0" stroke-width="0.4" stroke-miterlimit="10"/>
</svg>
