<svg width="24" height="24" viewBox="0 0 24 24" fill="none" xmlns="http://www.w3.org/2000/svg">
<path d="M21.602 9.89797C21.602 9.17797 21.302 4.79797 21.302 4.79797C21.302 4.07797 21.062 3.65797 20.702 3.29797C20.402 2.99797 19.922 2.69797 19.202 2.69797C19.202 2.69797 14.822 2.39797 14.102 2.39797C13.022 2.39797 12.362 2.33797 11.042 3.71797C10.382 4.37797 3.24201 11.518 2.94201 11.818C2.64201 12.118 1.62201 13.318 3.36201 15.058L9.00201 20.698C10.742 22.438 11.942 21.418 12.242 21.118C12.542 20.818 19.682 13.678 20.342 13.018C21.662 11.638 21.602 10.918 21.602 9.89797ZM13.982 12.238L16.442 13.378L15.542 14.998L13.262 13.498C13.202 13.438 13.142 13.438 13.082 13.438C13.022 13.438 12.962 13.438 12.902 13.498C12.782 13.558 12.722 13.678 12.722 13.798L12.902 16.498L11.102 16.498L11.222 13.798C11.222 13.678 11.162 13.558 11.042 13.498C10.922 13.438 10.802 13.438 10.742 13.498L8.64201 14.998L7.68201 13.438L10.142 12.238C10.262 12.178 10.322 12.058 10.322 11.938C10.322 11.818 10.262 11.698 10.142 11.638L7.68201 10.498L8.58201 8.87797L10.862 10.378C10.982 10.438 11.102 10.438 11.162 10.378C11.282 10.318 11.342 10.198 11.342 10.078L11.162 7.37797L12.962 7.37797L12.842 10.078C12.842 10.198 12.902 10.318 13.022 10.378C13.142 10.438 13.262 10.438 13.322 10.378L15.542 8.87797L16.502 10.438L14.042 11.638C13.922 11.698 13.862 11.818 13.862 11.938C13.802 12.058 13.862 12.178 13.982 12.238ZM18.182 7.07797C17.522 7.07797 17.042 6.53797 17.042 5.93797C17.042 5.27797 17.582 4.79797 18.182 4.79797C18.842 4.79797 19.322 5.33797 19.322 5.93797C19.322 6.59797 18.782 7.07797 18.182 7.07797Z" fill="white"/>
</svg>
