<svg width="24" height="24" viewBox="0 0 24 24" fill="none" xmlns="http://www.w3.org/2000/svg">
<path d="M4.27421 2.40432C5.19309 2.03879 5.8167 1.95798 6.80647 2.40432C7.79625 2.85067 8.51091 4.11796 8.70567 5.52712C8.77246 6.01043 8.7561 6.29092 8.70566 6.77616C8.56982 8.08277 7.4395 8.64983 7.43953 9.89895C7.43955 11.1481 11.871 14.2709 11.871 14.2709C11.871 14.2709 14.3091 16.142 14.4032 16.1445C14.4973 16.1471 15.8211 15.0521 16.3024 14.8954C16.7838 14.7387 17.0983 14.7693 17.5686 14.8954L17.5872 14.9033C19.7766 15.8299 22 16.7709 22 17.3937C22 18.0182 21.5558 19.4372 20.7339 20.5165C19.8796 21.972 18.7772 22.2851 16.9355 21.7656C12.3758 19.5558 6.1734 13.6463 6.1734 13.6463C6.1734 13.6463 2.88624 10.421 2.37502 8.02528C2.06944 6.59324 1.79765 5.41712 2.37502 4.27794C2.55508 3.92267 3.30614 2.78943 4.27421 2.40432Z" stroke="white" stroke-width="2"/>
</svg>
