<svg width="32" height="32" viewBox="0 0 32 32" fill="none" xmlns="http://www.w3.org/2000/svg">
<path d="M28.8 16C28.7989 9.19108 23.4674 3.5747 16.6678 3.21949C9.86806 2.86427 3.9804 7.89456 3.26987 14.6663C2.55934 21.4381 7.27466 27.5809 14 28.6448L14 19.7H10.7504V16H14L14 13.18C14 9.97204 15.9112 8.20004 18.8344 8.20004C19.7944 8.21336 20.7521 8.29678 21.7 8.44964L21.7 11.6L20.0856 11.6C19.5283 11.526 18.9676 11.7095 18.5619 12.0986C18.1562 12.4877 17.9494 13.0402 18 13.6L18 16L21.5504 16L20.9824 19.7H18L18 28.6448C24.2205 27.6608 28.801 22.2979 28.8 16Z" fill="#F3F4F6"/>
</svg>
