<svg width="20" height="20" viewBox="0 0 20 20" fill="none" xmlns="http://www.w3.org/2000/svg">
<path d="M4.5 18C5.32843 18 6 17.3284 6 16.5C6 15.6716 5.32843 15 4.5 15C3.67157 15 3 15.6716 3 16.5C3 17.3284 3.67157 18 4.5 18Z" fill="#743093"/>
<path d="M15.5 18C16.3284 18 17 17.3284 17 16.5C17 15.6716 16.3284 15 15.5 15C14.6716 15 14 15.6716 14 16.5C14 17.3284 14.6716 18 15.5 18Z" fill="#743093"/>
<path d="M17.5 13L3.38351 13L4.28351 11.5L14 11.5C14.207 11.5 14.3925 11.3725 14.467 11.1795L16.967 4.67954C17.026 4.52554 17.0055 4.35304 16.9125 4.21704C16.819 4.08104 16.6645 4.00004 16.5 4.00004L4.25001 4.00004L2.90001 2.20004C2.73451 1.97904 2.42101 1.93354 2.20001 2.10004C1.97901 2.26554 1.93401 2.57904 2.10001 2.80004L3.50001 4.66654L3.50001 10.8615L2.07151 13.2425C1.97851 13.397 1.97651 13.5895 2.06501 13.746C2.15351 13.9025 2.32001 14 2.50001 14L17.5 14C17.7765 14 18 13.776 18 13.5C18 13.224 17.7765 13 17.5 13Z" fill="#743093"/>
</svg>
