<svg width="17" height="19" viewBox="0 0 17 19" fill="none" xmlns="http://www.w3.org/2000/svg">
<path d="M16.3303 12.0356L2.1303 12.0356L3.1953 10.5312L13.4903 10.5312C13.7963 10.5312 14.0668 10.3244 14.1634 10.0167L16.2934 3.24675C16.3665 3.01733 16.3296 2.76533 16.1961 2.56901C16.0626 2.37268 15.8482 2.25684 15.6203 2.25684L3.13424 2.25684L1.21227 0.220587C0.934658 -0.0735291 0.485938 -0.0735291 0.208328 0.220587C-0.0692816 0.514704 -0.0692816 0.990104 0.208328 1.28422L2.1303 3.32047L2.1303 9.52776L0.142298 12.3365C-0.0195816 12.5645 -0.0451416 12.8691 0.0748484 13.1241C0.195548 13.3791 0.441208 13.5401 0.710298 13.5401L16.3303 13.5401C16.7229 13.5401 17.0403 13.2031 17.0403 12.7879C17.0403 12.3726 16.7229 12.0356 16.3303 12.0356Z" fill="#858994"/>
<path d="M2.81029 18.1063C3.59453 18.1063 4.23029 17.4328 4.23029 16.6019C4.23029 15.771 3.59453 15.0975 2.81029 15.0975C2.02604 15.0975 1.39029 15.771 1.39029 16.6019C1.39029 17.4328 2.02604 18.1063 2.81029 18.1063Z" fill="#858994"/>
<path d="M14.2303 18.1063C15.0145 18.1063 15.6503 17.4328 15.6503 16.6019C15.6503 15.771 15.0145 15.0975 14.2303 15.0975C13.4461 15.0975 12.8103 15.771 12.8103 16.6019C12.8103 17.4328 13.4461 18.1063 14.2303 18.1063Z" fill="#858994"/>
</svg>
